<?xml version="1.0" encoding="UTF-8" standalone="no"?>
<svg
   xmlns:dc="http://purl.org/dc/elements/1.1/"
   xmlns:cc="http://creativecommons.org/ns#"
   xmlns:rdf="http://www.w3.org/1999/02/22-rdf-syntax-ns#"
   xmlns:svg="http://www.w3.org/2000/svg"
   xmlns="http://www.w3.org/2000/svg"
   xmlns:xlink="http://www.w3.org/1999/xlink"
   viewBox="0 0 500 475.05801"
   height="475.05801"
   width="500"
   xml:space="preserve"
   id="svg2"
   version="1.1"><metadata
     id="metadata8"><rdf:RDF><cc:Work
         rdf:about=""><dc:format>image/svg+xml</dc:format><dc:type
           rdf:resource="http://purl.org/dc/dcmitype/StillImage" /><dc:title></dc:title></cc:Work></rdf:RDF></metadata><defs
     id="defs6"><clipPath
       id="clipPath1386"
       clipPathUnits="userSpaceOnUse"><path
         id="path1384"
         d="M 166.44,490.928 H 411.337 V 257.985 H 166.44 Z" /></clipPath><clipPath
       clipPathUnits="userSpaceOnUse"
       id="clipPath5"
       clip-path="url(#clipPathS)"><use
         height="100%"
         width="100%"
         y="0"
         x="0"
         id="use9"
         transform="translate(-393.41,-258.65601)"
         xlink:href="#path1384" /></clipPath><clipPath
       clipPathUnits="userSpaceOnUse"
       id="clipPath4"
       clip-path="url(#clipPathZ)"><use
         height="100%"
         width="100%"
         y="0"
         x="0"
         id="useI"
         transform="translate(-370.599,-258.65601)"
         xlink:href="#path1384" /></clipPath><clipPath
       clipPathUnits="userSpaceOnUse"
       id="clipPath5r"
       clip-path="url(#clipPathe)"><use
         height="100%"
         width="100%"
         y="0"
         x="0"
         id="useq"
         xlink:href="#path1384" /></clipPath><clipPath
       clipPathUnits="userSpaceOnUse"
       id="clipPathw"
       clip-path="url(#clipPathq)"><use
         height="100%"
         width="100%"
         y="0"
         x="0"
         id="useo"
         transform="translate(-338.608,-258.65601)"
         xlink:href="#path1384" /></clipPath><clipPath
       clipPathUnits="userSpaceOnUse"
       id="clipPathb"
       clip-path="url(#clipPathAj)"><use
         height="100%"
         width="100%"
         y="0"
         x="0"
         id="used"
         transform="translate(-324.112,-263.93201)"
         xlink:href="#path1384" /></clipPath><clipPath
       clipPathUnits="userSpaceOnUse"
       id="clipPath6"
       clip-path="url(#clipPath3c)"><use
         height="100%"
         width="100%"
         y="0"
         x="0"
         id="use8"
         transform="translate(-299.75999,-264.67101)"
         xlink:href="#path1384" /></clipPath><clipPath
       clipPathUnits="userSpaceOnUse"
       id="clipPathbt"
       clip-path="url(#clipPath1W)"><use
         height="100%"
         width="100%"
         y="0"
         x="0"
         id="useA"
         transform="translate(-278.489,-267.287)"
         xlink:href="#path1384" /></clipPath><clipPath
       clipPathUnits="userSpaceOnUse"
       id="clipPathA"
       clip-path="url(#clipPathM)"><use
         height="100%"
         width="100%"
         y="0"
         x="0"
         id="useb"
         transform="translate(-264.26601,-258.65601)"
         xlink:href="#path1384" /></clipPath><clipPath
       clipPathUnits="userSpaceOnUse"
       id="clipPathz"
       clip-path="url(#clipPathMv)"><use
         height="100%"
         width="100%"
         y="0"
         x="0"
         id="useql"
         transform="translate(-242.80499,-258.65601)"
         xlink:href="#path1384" /></clipPath><clipPath
       clipPathUnits="userSpaceOnUse"
       id="clipPaths"
       clip-path="url(#clipPathT)"><use
         height="100%"
         width="100%"
         y="0"
         x="0"
         id="usem"
         transform="translate(-224.299,-258.65601)"
         xlink:href="#path1384" /></clipPath><clipPath
       clipPathUnits="userSpaceOnUse"
       id="clipPathsE"
       clip-path="url(#clipPath4Q)"><use
         height="100%"
         width="100%"
         y="0"
         x="0"
         id="useM"
         xlink:href="#path1384" /></clipPath><clipPath
       clipPathUnits="userSpaceOnUse"
       id="clipPath4N"
       clip-path="url(#clipPathIy)"><use
         height="100%"
         width="100%"
         y="0"
         x="0"
         id="useL"
         xlink:href="#path1384" /></clipPath><clipPath
       clipPathUnits="userSpaceOnUse"
       id="clipPathK"
       clip-path="url(#clipPathu)"><use
         height="100%"
         width="100%"
         y="0"
         x="0"
         id="use0"
         transform="translate(-402.83701,-482.28799)"
         xlink:href="#path1384" /></clipPath><clipPath
       clipPathUnits="userSpaceOnUse"
       id="clipPathF"
       clip-path="url(#clipPathR)"><use
         height="100%"
         width="100%"
         y="0"
         x="0"
         id="use6"
         transform="translate(-394.789,-490.927)"
         xlink:href="#path1384" /></clipPath><clipPath
       clipPathUnits="userSpaceOnUse"
       id="clipPath1"
       clip-path="url(#clipPathqp)"><use
         height="100%"
         width="100%"
         y="0"
         x="0"
         id="useM8"
         transform="translate(-384.492,-289.89101)"
         xlink:href="#path1384" /></clipPath><clipPath
       clipPathUnits="userSpaceOnUse"
       id="clipPathI"
       clip-path="url(#clipPathV)"><use
         height="100%"
         width="100%"
         y="0"
         x="0"
         id="user"
         transform="translate(-362.909,-281.996)"
         xlink:href="#path1384" /></clipPath><clipPath
       clipPathUnits="userSpaceOnUse"
       id="clipPath2"
       clip-path="url(#clipPathP)"><use
         height="100%"
         width="100%"
         y="0"
         x="0"
         id="usel"
         transform="translate(-330.808,-281.957)"
         xlink:href="#path1384" /></clipPath><clipPath
       clipPathUnits="userSpaceOnUse"
       id="clipPathL"
       clip-path="url(#clipPathy)"><use
         height="100%"
         width="100%"
         y="0"
         x="0"
         id="usee"
         transform="translate(-291.858,-281.91)"
         xlink:href="#path1384" /></clipPath><clipPath
       clipPathUnits="userSpaceOnUse"
       id="clipPath1k"
       clip-path="url(#clipPathE)"><use
         height="100%"
         width="100%"
         y="0"
         x="0"
         id="use1"
         transform="translate(-262.05,-281.87399)"
         xlink:href="#path1384" /></clipPath><clipPath
       clipPathUnits="userSpaceOnUse"
       id="clipPathk"
       clip-path="url(#clipPathiG)"><use
         height="100%"
         width="100%"
         y="0"
         x="0"
         id="useM5"
         transform="translate(-233.576,-288.437)"
         xlink:href="#path1384" /></clipPath><clipPath
       clipPathUnits="userSpaceOnUse"
       id="clipPath2L"
       clip-path="url(#clipPathSZ)"><use
         height="100%"
         width="100%"
         y="0"
         x="0"
         id="useQ"
         transform="translate(-210,-281.812)"
         xlink:href="#path1384" /></clipPath><clipPath
       clipPathUnits="userSpaceOnUse"
       id="clipPathX"
       clip-path="url(#clipPathFY)"><use
         height="100%"
         width="100%"
         y="0"
         x="0"
         id="usev"
         transform="translate(-392.88901,-313.93401)"
         xlink:href="#path1384" /></clipPath><clipPath
       clipPathUnits="userSpaceOnUse"
       id="clipPatht"
       clip-path="url(#clipPathuC)"><use
         height="100%"
         width="100%"
         y="0"
         x="0"
         id="useu"
         transform="translate(-392.88901,-313.93401)"
         xlink:href="#path1384" /></clipPath><clipPath
       clipPathUnits="userSpaceOnUse"
       id="clipPathB"
       clip-path="url(#clipPathO)"><use
         height="100%"
         width="100%"
         y="0"
         x="0"
         id="useh"
         transform="translate(-253.31799,-314.017)"
         xlink:href="#path1384" /></clipPath><clipPath
       clipPathUnits="userSpaceOnUse"
       id="clipPathi"
       clip-path="url(#clipPath38)"><use
         height="100%"
         width="100%"
         y="0"
         x="0"
         id="useLN"
         transform="translate(-253.31799,-314.017)"
         xlink:href="#path1384" /></clipPath></defs><g
     transform="matrix(1.3333333,0,0,-1.3333333,0,475.058)"
     id="g10"><g
       transform="matrix(1.5325702,0,0,1.5325702,-218.3628,-155.72626)"
       id="g2546"><path
         clip-path="url(#clipPathi)"
         transform="translate(229.35943,157.18217)"
         d="m 0,0 -51.293,-0.062 -0.16,133.621 -36.932,-0.044 -0.05,42.317 124.385,0.149 0.052,-42.317 L -0.16,133.621 0,0"
         style="fill:#1476c6;fill-opacity:1;fill-rule:nonzero;stroke:none"
         id="path1390" /><path
         clip-path="url(#clipPathB)"
         transform="translate(229.35943,157.18217)"
         d="m 0,0 -51.293,-0.062 -0.16,133.621 -36.932,-0.044 -0.05,42.317 124.385,0.149 0.052,-42.317 L -0.16,133.621 0,0"
         style="fill:#1476c6;fill-opacity:1;fill-rule:nonzero;stroke:none"
         id="path1394" /><path
         clip-path="url(#clipPatht)"
         transform="translate(368.93045,157.09918)"
         d="m 0,0 -130.741,-0.157 -0.047,39.323 58.304,43.903 c 10.509,9.029 23.02,19.563 23.001,34.591 -0.011,10.019 -6.283,18.026 -16.802,18.013 -16.03,-0.019 -20.518,-16.555 -21.254,-29.83 l -43.339,8.464 c 4.715,36.823 31.235,59.898 68.303,59.942 34.314,0.041 63.389,-18.458 63.434,-55.527 0.023,-18.534 -8.476,-32.32 -21.987,-44.358 L -60.916,44.509 -64.92,42 1.953,42.08 0,0"
         style="fill:#000000;fill-opacity:1;fill-rule:nonzero;stroke:none"
         id="path1398" /><path
         clip-path="url(#clipPathX)"
         transform="translate(368.93045,157.09918)"
         d="m 0,0 -130.741,-0.157 -0.047,39.323 58.304,43.903 c 10.509,9.029 23.02,19.563 23.001,34.591 -0.011,10.019 -6.283,18.026 -16.802,18.013 -16.03,-0.019 -20.518,-16.555 -21.254,-29.83 l -43.339,8.464 c 4.715,36.823 31.235,59.898 68.303,59.942 34.314,0.041 63.389,-18.458 63.434,-55.527 0.023,-18.534 -8.476,-32.32 -21.987,-44.358 L -60.916,44.509 -64.92,42 1.953,42.08 0,0"
         style="fill:#000000;fill-opacity:1;fill-rule:nonzero;stroke:none"
         id="path1402" /><path
         clip-path="url(#clipPath2L)"
         transform="translate(186.04144,124.97717)"
         d="M 0,0 -4.629,-0.006 -4.643,12.052 -7.976,12.049 -7.981,15.867 3.244,15.881 3.249,12.062 -0.014,12.058 0,0"
         style="fill:#000000;fill-opacity:1;fill-rule:nonzero;stroke:none"
         id="path1406" /><path
         clip-path="url(#clipPathk)"
         transform="translate(209.61744,131.60217)"
         d="M 0,0 -1.301,4.604 -2.592,-0.003 Z M 0.837,-3.471 -3.398,-3.476 -4.366,-6.601 -8.324,-6.606 -3.413,9.277 1.725,9.283 6.72,-6.588 1.744,-6.594 0.837,-3.471"
         style="fill:#000000;fill-opacity:1;fill-rule:nonzero;stroke:none"
         id="path1410" /><path
         clip-path="url(#clipPath1k)"
         transform="translate(238.09144,125.03916)"
         d="m 0,0 -2.739,5.991 -1.663,-2.316 0.004,-3.68 -4.582,-0.005 -0.019,15.877 4.582,0.004 0.008,-6.549 4.39,6.555 4.374,0.005 L 0.358,10.068 5.346,0.007 0,0"
         style="fill:#000000;fill-opacity:1;fill-rule:nonzero;stroke:none"
         id="path1414" /><path
         clip-path="url(#clipPathL)"
         transform="translate(267.89944,125.07517)"
         d="m 0,0 -11.918,-0.015 -0.019,15.877 11.918,0.015 0.004,-3.657 -7.151,-0.009 0.004,-2.314 5.784,0.007 0.005,-3.541 -5.785,-0.007 0.003,-2.569 7.15,0.008 L 0,0"
         style="fill:#000000;fill-opacity:1;fill-rule:nonzero;stroke:none"
         id="path1418" /><path
         clip-path="url(#clipPathsE)"
         transform="translate(-23.958563,-156.83483)"
         d="m 312.448,287.635 h -9.565 v 4.474 h 9.565 z"
         style="fill:#000000;fill-opacity:1;fill-rule:nonzero;stroke:none"
         id="path1442" /><path
         clip-path="url(#clipPath2)"
         transform="translate(306.84944,125.12217)"
         d="M 0,0 -4.629,-0.005 -4.643,12.052 -7.975,12.048 -7.98,15.867 3.244,15.881 3.249,12.062 -0.014,12.058 0,0"
         style="fill:#000000;fill-opacity:1;fill-rule:nonzero;stroke:none"
         id="path1422" /><path
         clip-path="url(#clipPathI)"
         transform="translate(338.95044,125.16117)"
         d="m 0,0 -4.096,-0.005 -2.21,8.745 h -0.046 l -2.049,-8.75 -4.258,-0.006 -4.255,15.872 4.583,0.005 2.209,-9.162 h 0.046 l 2.142,9.168 3.819,0.004 2.348,-9.162 h 0.046 L 0.467,15.877 4.194,15.882 0,0"
         style="fill:#000000;fill-opacity:1;fill-rule:nonzero;stroke:none"
         id="path1426" /><path
         clip-path="url(#clipPath1)"
         transform="translate(360.53344,133.05618)"
         d="M 0,0 C 0.002,-1.527 0.168,-4.466 2.389,-4.464 4.611,-4.462 4.77,-1.522 4.768,0.005 4.766,1.556 4.53,4.657 2.378,4.655 0.226,4.652 -0.002,1.551 0,0 Z M 9.975,0.035 C 9.98,-4.478 7.207,-8.091 2.393,-8.097 -2.42,-8.103 -5.202,-4.496 -5.207,0.017 -5.213,4.762 -2.463,8.236 2.374,8.242 7.211,8.248 9.969,4.779 9.975,0.035"
         style="fill:#000000;fill-opacity:1;fill-rule:nonzero;stroke:none"
         id="path1430" /><path
         clip-path="url(#clipPath4N)"
         transform="translate(-23.958563,-156.83483)"
         d="m 206.911,258.656 h -4.474 v 14.476 h 4.474 z"
         style="fill:#000000;fill-opacity:1;fill-rule:nonzero;stroke:none"
         id="path1440" /><path
         clip-path="url(#clipPaths)"
         transform="translate(200.34044,101.82118)"
         d="M 0,0 -4.157,6.774 -5.445,9.391 -5.487,9.349 -5.445,9.18 C -5.233,8.251 -5.149,7.744 -5.149,6.753 V 0 h -3.609 v 14.476 h 4.2 l 4.853,-8.082 0.043,0.042 -0.317,4.01 v 4.03 H 3.629 V 0 H 0"
         style="fill:#000000;fill-opacity:1;fill-rule:nonzero;stroke:none"
         id="path1446" /><path
         clip-path="url(#clipPathz)"
         transform="translate(218.84643,101.82118)"
         d="m 0,0 h -4.22 v 10.994 h -3.039 v 3.482 H 2.976 V 10.994 H 0 V 0"
         style="fill:#000000;fill-opacity:1;fill-rule:nonzero;stroke:none"
         id="path1450" /><path
         clip-path="url(#clipPathA)"
         transform="translate(240.30745,101.82118)"
         d="M 0,0 H -10.868 V 14.476 H 0 v -3.334 h -6.52 v -2.11 h 5.275 V 5.803 H -6.52 V 3.461 H 0 V 0"
         style="fill:#000000;fill-opacity:1;fill-rule:nonzero;stroke:none"
         id="path1454" /><path
         clip-path="url(#clipPathbt)"
         transform="translate(254.53044,110.45217)"
         d="M 0,0 C 0.971,0 2.131,0.147 2.131,1.393 2.131,1.879 1.878,2.342 1.434,2.575 1.055,2.764 0.591,2.764 0.169,2.764 H -1.625 V 0 Z m 1.878,-8.631 -2.11,5.529 H -1.625 V -8.631 H -6.12 V 5.845 H 1.245 C 2.511,5.845 3.904,5.677 4.98,4.959 6.183,4.199 6.753,2.913 6.753,1.498 6.753,-0.4 5.908,-1.54 4.199,-2.321 l 2.617,-6.31 H 1.878"
         style="fill:#000000;fill-opacity:1;fill-rule:nonzero;stroke:none"
         id="path1458" /><path
         clip-path="url(#clipPath6)"
         transform="translate(275.80143,107.83618)"
         d="M 0,0 -1.181,4.199 -2.363,0 Z M 0.759,-3.165 H -3.102 L -3.989,-6.014 H -7.597 L -3.102,8.462 H 1.582 L 6.119,-6.014 H 1.582 l -0.823,2.849"
         style="fill:#000000;fill-opacity:1;fill-rule:nonzero;stroke:none"
         id="path1462" /><path
         clip-path="url(#clipPathb)"
         transform="translate(300.15344,107.09718)"
         d="m 0,0 c -0.275,-3.334 -2.701,-5.486 -6.035,-5.486 -4.347,0 -6.627,3.144 -6.627,7.259 0,4.178 2.005,7.639 6.563,7.639 3.693,0 5.803,-2.195 6.099,-5.803 L -4.137,3.397 c 0.043,1.225 -0.421,2.765 -1.919,2.765 -1.963,0 -2.047,-3.018 -2.047,-4.389 0,-1.456 0.084,-3.925 2.089,-3.925 1.371,0 1.899,1.202 1.962,2.405 L 0,0"
         style="fill:#000000;fill-opacity:1;fill-rule:nonzero;stroke:none"
         id="path1466" /><path
         clip-path="url(#clipPathw)"
         transform="translate(314.64944,101.82118)"
         d="M 0,0 H -4.221 V 10.994 H -7.26 v 3.482 H 2.975 V 10.994 H 0 V 0"
         style="fill:#000000;fill-opacity:1;fill-rule:nonzero;stroke:none"
         id="path1470" /><path
         clip-path="url(#clipPath5r)"
         transform="translate(-23.958563,-156.83483)"
         d="m 353.781,258.656 h -4.474 v 14.476 h 4.474 z"
         style="fill:#000000;fill-opacity:1;fill-rule:nonzero;stroke:none"
         id="path1472" /><path
         clip-path="url(#clipPath4)"
         transform="translate(346.64044,101.82118)"
         d="M 0,0 H -4.537 L -9.2,14.476 h 4.663 l 2.279,-7.829 0.423,-1.435 0.401,1.372 2.279,7.892 h 3.65 L 0,0"
         style="fill:#000000;fill-opacity:1;fill-rule:nonzero;stroke:none"
         id="path1476" /><path
         clip-path="url(#clipPath5)"
         transform="translate(369.45144,101.82118)"
         d="M 0,0 H -10.868 V 14.476 H 0 v -3.334 h -6.521 v -2.11 h 5.276 V 5.803 H -6.521 V 3.461 H 0 V 0"
         style="fill:#000000;fill-opacity:1;fill-rule:nonzero;stroke:none"
         id="path1480" /></g></g></svg>